<?xml version="1.0" standalone="no"?><!DOCTYPE svg PUBLIC "-//W3C//DTD SVG 1.1//EN" "http://www.w3.org/Graphics/SVG/1.1/DTD/svg11.dtd"><svg t="1629015629659" class="icon" viewBox="0 0 1030 1024" version="1.1" xmlns="http://www.w3.org/2000/svg" p-id="2234" xmlns:xlink="http://www.w3.org/1999/xlink" width="201.171875" height="200"><defs><style type="text/css"></style></defs><path d="M511.955428 1023.910856a511.955428 511.955428 0 1 1 512.310583-511.955428 23.972939 23.972939 0 1 1-47.768301 0 464.187128 464.187128 0 1 0-464.542282 464.187128 23.972939 23.972939 0 1 1 0 47.7683zM704.484764 900.565646l259.29841-259.29841a31.608764 31.608764 0 0 1 44.71397 0l13.3183 13.3183a28.412372 28.412372 0 0 1 0 40.16799l-261.5714 261.5714a1.243041 1.243041 0 0 1-1.758016 0l-53.983506-54.001264a1.243041 1.243041 0 0 1 0-1.775774zM694.149764 912.747451l-22.552321 70.498198 77.778869-15.094073-55.226548-55.404125z" fill="#333333" p-id="2235"></path><path d="M527.049501 389.249496a920.560853 920.560853 0 0 0 266.365987 132.82784l-21.664433 38.179125a873.858017 873.858017 0 0 1-258.730163-134.603613 893.036368 893.036368 0 0 1-259.262895 134.070881l-21.131701-38.356703a971.8807 971.8807 0 0 0 266.365987-132.11753z m-198.886604-61.086599a530.42347 530.42347 0 0 1-54.338662 85.237116l-38.179125-24.150517a452.289447 452.289447 0 0 0 83.283766-155.557736l43.328867 9.234021c-3.373969 10.65464-8.701289 25.926289-16.159536 45.637372h162.483252v39.599744h-88.788663a601.099245 601.099245 0 0 1 24.683249 60.553868l-41.730672 14.738917a605.005946 605.005946 0 0 0-28.412372-75.292785z m371.846918 272.581194a663.251309 663.251309 0 0 1-59.133249 138.332736h132.650262v41.375517H252.337379v-41.020363h340.948464a807.26652 807.26652 0 0 0 63.572682-150.052839z m-337.396917-4.439434a693.794609 693.794609 0 0 1 48.123455 115.602839l-40.132476 10.477062a618.856978 618.856978 0 0 0-48.123455-113.116756z m-9.234021-71.03093h319.639185v39.954899h-319.639185z m151.828613 59.310827a953.767813 953.767813 0 0 1 37.468815 122.705932l-39.599743 10.477062a790.751828 790.751828 0 0 0-39.599744-120.397427z m83.283765-256.24408a492.421922 492.421922 0 0 1-35.515465 60.553868l-38.711857-24.328094a396.352589 396.352589 0 0 0 62.862373-130.874488l42.618558 9.234021c-3.196392 10.65464-8.168557 25.926289-14.738918 45.637372h180.240985v39.599744h-98.377838a414.643054 414.643054 0 0 1 32.141496 66.058765l-40.665207 14.738918a875.988944 875.988944 0 0 0-37.113661-80.797683z" fill="#333333" p-id="2236"></path></svg>